<svg xmlns="http://www.w3.org/2000/svg" xmlns:xlink="http://www.w3.org/1999/xlink" viewBox="3057 1158 250.001 34.695">
  <defs>
    <style>
      .cls-1 {
        fill: url(#linear-gradient);
      }

      .cls-2 {
        fill: url(#linear-gradient-4);
      }

      .cls-3 {
        fill: #010101;
      }
    </style>
    <linearGradient id="linear-gradient" y1="0.5" x2="1" y2="0.5" gradientUnits="objectBoundingBox">
      <stop offset="0" stop-color="#ef8d34"/>
      <stop offset="0.218" stop-color="#ef8833"/>
      <stop offset="0.556" stop-color="#ed7933"/>
      <stop offset="0.968" stop-color="#eb5d32"/>
      <stop offset="0.999" stop-color="#eb5b32"/>
    </linearGradient>
    <linearGradient id="linear-gradient-4" x1="1" y1="0.5" x2="0" y2="0.5" xlink:href="#linear-gradient"/>
  </defs>
  <g id="mapmagic-logo-04" transform="translate(3037.472 1025.371)">
    <g id="Group_12" data-name="Group 12">
      <g id="Group_11" data-name="Group 11">
        <g id="Group_10" data-name="Group 10">
          <path id="Path_37" data-name="Path 37" class="cls-1" d="M22.319,167.324H19.528l16.342-34.7h2.846Z"/>
          <path id="Path_38" data-name="Path 38" class="cls-1" d="M52.312,167.324h2.839l-16.426-34.7H35.879Z"/>
          <path id="Path_39" data-name="Path 39" class="cls-1" d="M42.991,162.5l.016.031-4.736-1.8-.934-.358-9.236,3.51L26.5,167.324l10.831-4.117,10.835,4.117-1.62-3.476Z"/>
          <path id="Path_40" data-name="Path 40" class="cls-2" d="M37.337,160.369l.934.358-.945-.362-.941.362-4.732,1.8,5.673-12.212,5.681,12.212-.016-.031,3.55,1.352,1.62,3.476-10.835-23.3L26.5,167.324l1.606-3.445Z"/>
        </g>
      </g>
      <path id="Path_41" data-name="Path 41" class="cls-3" d="M95.7,161.436H93.785a.687.687,0,0,1-.666-.635h0l-1.952-12.213-5.674,12.456a.665.665,0,0,1-1.237-.012l-5.509-12.458-2.173,12.217h0a.692.692,0,0,1-.664.645H73.867a.673.673,0,0,1-.58-.668.564.564,0,0,1,0-.123l3.91-19.976h0a.658.658,0,0,1,.654-.591.61.61,0,0,1,.575.322h0l6.491,14.694,6.673-14.585h0a.653.653,0,0,1,1.261.133h0l3.513,19.973a.6.6,0,0,1,.02.152.668.668,0,0,1-.666.668H95.7Z"/>
      <path id="Path_42" data-name="Path 42" class="cls-3" d="M175.289,161.436h-1.911a.685.685,0,0,1-.666-.635h0l-1.952-12.213-5.676,12.456a.7.7,0,0,1-.617.414.7.7,0,0,1-.617-.426l-5.511-12.458-2.173,12.217h0a.7.7,0,0,1-.666.645h-2.039a.674.674,0,0,1-.581-.668.723.723,0,0,1,0-.123l3.911-19.976h0a.658.658,0,0,1,.654-.591.617.617,0,0,1,.577.322h0l6.489,14.694,6.673-14.585h0a.652.652,0,0,1,1.26.133h0l3.513,19.973a.605.605,0,0,1,.021.152.668.668,0,0,1-.667.668h-.026Z"/>
      <path id="Path_43" data-name="Path 43" class="cls-3" d="M124.283,160.559h0l-9.035-20.116h0a.6.6,0,0,0-.58-.33c-.312,0-.493.227-.639.512l-9.241,19.848a.777.777,0,0,0-.1.379.641.641,0,0,0,.637.658h2.04a.69.69,0,0,0,.558-.439l2.136-4.658h8.985l2.014,4.66c.009.025.021.051.032.074l0,.006h0a.654.654,0,0,0,.581.357h2.022a.658.658,0,0,0,.657-.658A.747.747,0,0,0,124.283,160.559Zm-12.909-7.123,3.264-7.138,3.113,7.138Z"/>
      <path id="Path_44" data-name="Path 44" class="cls-3" d="M203.773,160.49h0l-8.987-20.012h0a.6.6,0,0,0-.577-.328c-.311,0-.492.224-.636.508L184.38,160.4a.767.767,0,0,0-.1.377.637.637,0,0,0,.632.654h2.03a.687.687,0,0,0,.553-.438l2.127-4.635h8.938l2,4.637a.8.8,0,0,0,.033.074v.006h0a.653.653,0,0,0,.579.355h2.01a.656.656,0,0,0,.655-.654A.757.757,0,0,0,203.773,160.49Zm-12.84-7.088,3.245-7.1,3.1,7.1Z"/>
      <path id="Path_45" data-name="Path 45" class="cls-3" d="M142.749,141.93a5.415,5.415,0,0,0-2.426-1.406,16.4,16.4,0,0,0-4.038-.372h-2.973a.666.666,0,0,0-.666.666v19.95a.667.667,0,0,0,.666.668h1.88a.667.667,0,0,0,.667-.668.055.055,0,0,0,0-.016v-7.961h1.49a7.748,7.748,0,0,0,5.28-1.707,5.842,5.842,0,0,0,1.956-4.631A6.052,6.052,0,0,0,142.749,141.93Zm-5.692,7.885h-1.2v-6.7h1.062q4.563,0,4.563,3.294Q141.482,149.816,137.057,149.815Z"/>
      <path id="Path_46" data-name="Path 46" class="cls-3" d="M232.937,151.074h0a14.575,14.575,0,0,1-.564,4.244,9.05,9.05,0,0,1-1.861,3.2,9.646,9.646,0,0,1-7.54,3.336,10.365,10.365,0,0,1-7.651-3.227,11.108,11.108,0,0,1,12.6-17.848,12.81,12.81,0,0,1,3.613,2.808h-.006a.659.659,0,0,1-.02.953v0l-1.275,1.223a.243.243,0,0,1-.033.031l-.012.013h0a.649.649,0,0,1-.434.165.665.665,0,0,1-.58-.344,7.521,7.521,0,0,0-5.855-2.841,7.62,7.62,0,0,0-5.664,2.329,7.777,7.777,0,0,0-2.291,5.736,8,8,0,0,0,7.721,7.995,6.423,6.423,0,0,0,4.261-1.6,5.7,5.7,0,0,0,2.109-3.859h-4.736a.679.679,0,0,1-.571-.725c0-.018,0,.018,0,0V151.1c0-.02,0,.018,0,0a.681.681,0,0,1,.651-.729h7.467a.681.681,0,0,1,.676.674v.029Z"/>
      <path id="Path_47" data-name="Path 47" class="cls-3" d="M243.871,140.162v-.01H241.9a.665.665,0,0,0-.667.666V160.8h0a.666.666,0,0,0,.663.633h1.973v-.01a.66.66,0,0,0,.568-.623h0V140.818A.665.665,0,0,0,243.871,140.162Z"/>
      <path id="Path_48" data-name="Path 48" class="cls-3" d="M269.528,141.75v2.016a.666.666,0,0,1-.665.666.6.6,0,0,1-.321-.076h0a8.383,8.383,0,0,0-4.775-1.584,7.328,7.328,0,0,0-5.526,2.357,7.943,7.943,0,0,0-2.262,5.734,7.753,7.753,0,0,0,2.262,5.651,7.468,7.468,0,0,0,5.542,2.3,6.812,6.812,0,0,0,2.88-.553,8.345,8.345,0,0,0,1.371-.744c.143-.094.287-.2.433-.3h0a.8.8,0,0,1,.4-.125.666.666,0,0,1,.665.666v2.108a.667.667,0,0,1-.372.6h0a11.517,11.517,0,0,1-5.417,1.355,10.679,10.679,0,0,1-7.787-3.184,10.554,10.554,0,0,1-3.213-7.747,10.927,10.927,0,0,1,2.688-7.25,11.063,11.063,0,0,1,13.754-2.539h0a.716.716,0,0,1,.347.6C269.528,141.714,269.528,141.75,269.528,141.75Z"/>
    </g>
  </g>
</svg>
