
<svg xmlns="http://www.w3.org/2000/svg" viewBox="3318 1158 250.002 34.696">
  <defs>
    <style>
      .cls-1 {
        fill: #fff;
      }
    </style>
  </defs>
  <g id="mapmagic-logo-05" transform="translate(3290.204 1025.372)">
    <g id="Group_15" data-name="Group 15">
      <g id="Group_14" data-name="Group 14">
        <g id="Group_13" data-name="Group 13">
          <path id="Path_49" data-name="Path 49" class="cls-1" d="M30.588,167.324H27.8l16.343-34.7h2.844Z"/>
          <path id="Path_50" data-name="Path 50" class="cls-1" d="M60.581,167.324H63.42l-16.428-34.7H44.146Z"/>
          <path id="Path_51" data-name="Path 51" class="cls-1" d="M51.259,162.5l.015.031-4.734-1.8-.936-.358-9.236,3.508-1.6,3.447L45.6,163.205l10.836,4.119-1.621-3.476Z"/>
          <path id="Path_52" data-name="Path 52" class="cls-1" d="M45.6,160.369l.936.358-.945-.362-.942.362-4.732,1.8L45.6,150.316l5.679,12.211-.015-.031,3.551,1.352,1.621,3.476L45.6,144.025l-10.832,23.3,1.6-3.447Z"/>
        </g>
      </g>
      <path id="Path_53" data-name="Path 53" class="cls-1" d="M103.966,161.436h-1.912a.689.689,0,0,1-.668-.637h0l-1.951-12.21-5.674,12.453a.666.666,0,0,1-1.237-.01l-5.509-12.458-2.174,12.217h0a.694.694,0,0,1-.665.645H82.133a.673.673,0,0,1-.578-.668.628.628,0,0,1,0-.123l3.911-19.977h0a.657.657,0,0,1,.653-.59.609.609,0,0,1,.576.322h0l6.49,14.694,6.672-14.586h0a.654.654,0,0,1,1.262.133h0l3.513,19.974a.593.593,0,0,1,.021.152.669.669,0,0,1-.668.668h-.023Z"/>
      <path id="Path_54" data-name="Path 54" class="cls-1" d="M183.558,161.436h-1.911a.684.684,0,0,1-.666-.637h0l-1.953-12.21-5.676,12.453a.664.664,0,0,1-1.234-.01l-5.51-12.458-2.174,12.217h0a.7.7,0,0,1-.666.645h-2.039a.674.674,0,0,1-.581-.668.834.834,0,0,1,0-.123l3.911-19.977h0a.658.658,0,0,1,.654-.59.61.61,0,0,1,.576.322h0l6.49,14.694,6.673-14.586h0a.653.653,0,0,1,1.261.133h0l3.512,19.974a.552.552,0,0,1,.021.152.668.668,0,0,1-.667.668h-.025Z"/>
      <path id="Path_55" data-name="Path 55" class="cls-1" d="M132.551,160.559h0l-9.034-20.116h0a.6.6,0,0,0-.58-.33c-.311,0-.5.226-.64.511l-9.241,19.849a.776.776,0,0,0-.1.379.641.641,0,0,0,.636.658h2.04a.7.7,0,0,0,.558-.441l2.136-4.658h8.985l2.014,4.662c.01.025.021.049.032.074l0,.006h0a.656.656,0,0,0,.582.357h2.021a.658.658,0,0,0,.657-.658A.765.765,0,0,0,132.551,160.559Zm-12.909-7.123,3.264-7.139,3.113,7.139Z"/>
      <path id="Path_56" data-name="Path 56" class="cls-1" d="M212.041,160.488h0l-8.987-20.01h0a.6.6,0,0,0-.576-.329c-.312,0-.493.226-.636.509L192.648,160.4a.788.788,0,0,0-.1.377.639.639,0,0,0,.632.656h2.03a.686.686,0,0,0,.552-.438l2.127-4.635h8.938l2,4.637c.01.027.021.049.032.074l0,.006h0a.652.652,0,0,0,.58.355h2.01a.657.657,0,0,0,.654-.656A.784.784,0,0,0,212.041,160.488ZM199.2,153.4l3.245-7.1,3.1,7.1Z"/>
      <path id="Path_57" data-name="Path 57" class="cls-1" d="M151.018,141.929a5.424,5.424,0,0,0-2.426-1.406,16.412,16.412,0,0,0-4.038-.371H141.58a.664.664,0,0,0-.665.666v19.95a.666.666,0,0,0,.665.668h1.881a.668.668,0,0,0,.667-.668.09.09,0,0,0,0-.016v-7.961h1.49a7.739,7.739,0,0,0,5.28-1.709,5.836,5.836,0,0,0,1.956-4.63A6.057,6.057,0,0,0,151.018,141.929Zm-5.693,7.885h-1.2v-6.7h1.062q4.562,0,4.562,3.294Q149.751,149.815,145.325,149.814Z"/>
      <path id="Path_58" data-name="Path 58" class="cls-1" d="M241.2,151.074h0a14.541,14.541,0,0,1-.564,4.244,9.022,9.022,0,0,1-1.86,3.2,9.642,9.642,0,0,1-7.541,3.338,10.361,10.361,0,0,1-7.649-3.227,11.108,11.108,0,0,1,12.6-17.849,12.8,12.8,0,0,1,3.613,2.809h-.006a.661.661,0,0,1,.194.467.669.669,0,0,1-.213.486v0l-1.275,1.222a.341.341,0,0,1-.033.033l-.014.012h0a.655.655,0,0,1-.434.165.664.664,0,0,1-.58-.343,7.522,7.522,0,0,0-5.856-2.84,7.622,7.622,0,0,0-5.665,2.328,7.782,7.782,0,0,0-2.289,5.735,8,8,0,0,0,7.72,7.994,6.424,6.424,0,0,0,4.26-1.6,5.693,5.693,0,0,0,2.109-3.861h-4.734a.679.679,0,0,1-.573-.723c0-.021,0,.016,0,0V151.1c0-.02,0,.016,0,0a.683.683,0,0,1,.652-.729h7.467a.68.68,0,0,1,.675.674v.029Z"/>
      <path id="Path_59" data-name="Path 59" class="cls-1" d="M252.14,140.161v-.009h-1.974a.664.664,0,0,0-.666.666V160.8h0a.666.666,0,0,0,.662.633h1.974v-.012a.658.658,0,0,0,.567-.621h.005V140.818A.666.666,0,0,0,252.14,140.161Z"/>
      <path id="Path_60" data-name="Path 60" class="cls-1" d="M277.8,141.75v2.016a.665.665,0,0,1-.665.665.6.6,0,0,1-.32-.075h0a8.386,8.386,0,0,0-4.776-1.584,7.33,7.33,0,0,0-5.526,2.357,7.936,7.936,0,0,0-2.261,5.734,7.748,7.748,0,0,0,2.261,5.651,7.464,7.464,0,0,0,5.542,2.3,6.821,6.821,0,0,0,2.881-.551,8.54,8.54,0,0,0,1.371-.744c.142-.094.287-.2.433-.3h0a.8.8,0,0,1,.4-.125.666.666,0,0,1,.665.666v2.107a.668.668,0,0,1-.371.6h0a11.541,11.541,0,0,1-5.417,1.355,10.68,10.68,0,0,1-7.788-3.186,10.546,10.546,0,0,1-3.212-7.745,10.928,10.928,0,0,1,2.688-7.251,11.061,11.061,0,0,1,13.754-2.537h0a.71.71,0,0,1,.347.6C277.8,141.714,277.8,141.75,277.8,141.75Z"/>
    </g>
  </g>
</svg>
